# xmcd
#
# Track frame offsets: 
#        150
#        16830
#        39415
#        55918
#        73419
#        95243
#        109826
#        123779
#        137661
#        154090
#
# Disc length: 2412 seconds
#
# Revision: 0
# Processed by: cddbd v1.5.1PL2 Copyright (c) Steve Scherf et al.
# Submitted via: ExactAudioCopy v0.95b4
#
DISCID=87096a0a
DTITLE=Blugrass Tribute to the Eagles - On A Dark Desert Highway
DYEAR=2005
DGENRE=Bluegrass
TTITLE0=Already Gone
TTITLE1=Lyin' Eyes
TTITLE2=NEw Kid in Town
TTITLE3=Best of My Love
TTITLE4=Take It to the Limit
TTITLE5=Peaceful Easy Feelin'
TTITLE6=Love Will Keep Us Alive
TTITLE7=The Long Run
TTITLE8=On The Border
TTITLE9=The Last Resort
EXTD=
EXTT0=
EXTT1=
EXTT2=
EXTT3=
EXTT4=
EXTT5=
EXTT6=
EXTT7=
EXTT8=
EXTT9=
PLAYORDER=
